<svg xmlns="http://www.w3.org/2000/svg" width="800" height="960" viewBox="0 0 800 960">
  <rect x="0" y="0" width="800" height="960" fill="#ffffff" />
  <polygon points="40.00,40.00 280.00,40.00 280.00,280.00 40.00,280.00" stroke="#d9d9d9" stroke-width="1" fill="#ffffff" />
  <polygon points="280.00,40.00 760.00,40.00 760.00,520.00 280.00,520.00" stroke="#d9d9d9" stroke-width="1" fill="#ffffff" />
  <polygon points="40.00,600.00 280.00,600.00 280.00,920.00 40.00,920.00" stroke="#d9d9d9" stroke-width="1" fill="#ffffff" />
  <polygon points="40.00,280.00 280.00,280.00 280.00,600.00 40.00,600.00" stroke="#d9d9d9" stroke-width="1" fill="#ffffff" />
  <line x1="40.00" y1="40.00" x2="280.00" y2="40.00" stroke="#111111" stroke-width="14" stroke-linecap="square" />
  <line x1="40.00" y1="40.00" x2="40.00" y2="280.00" stroke="#111111" stroke-width="14" stroke-linecap="square" />
  <line x1="280.00" y1="40.00" x2="760.00" y2="40.00" stroke="#111111" stroke-width="14" stroke-linecap="square" />
  <line x1="760.00" y1="40.00" x2="760.00" y2="520.00" stroke="#111111" stroke-width="14" stroke-linecap="square" />
  <line x1="280.00" y1="520.00" x2="760.00" y2="520.00" stroke="#111111" stroke-width="14" stroke-linecap="square" />
  <line x1="280.00" y1="600.00" x2="280.00" y2="920.00" stroke="#111111" stroke-width="14" stroke-linecap="square" />
  <line x1="40.00" y1="920.00" x2="280.00" y2="920.00" stroke="#111111" stroke-width="14" stroke-linecap="square" />
  <line x1="40.00" y1="600.00" x2="40.00" y2="920.00" stroke="#111111" stroke-width="14" stroke-linecap="square" />
  <line x1="280.00" y1="520.00" x2="280.00" y2="600.00" stroke="#111111" stroke-width="14" stroke-linecap="square" />
  <line x1="40.00" y1="280.00" x2="40.00" y2="600.00" stroke="#111111" stroke-width="14" stroke-linecap="square" />
  <line x1="280.00" y1="40.00" x2="280.00" y2="280.00" stroke="#111111" stroke-width="8" stroke-linecap="square" />
  <line x1="40.00" y1="280.00" x2="280.00" y2="280.00" stroke="#111111" stroke-width="8" stroke-linecap="square" />
  <line x1="280.00" y1="280.00" x2="280.00" y2="520.00" stroke="#111111" stroke-width="8" stroke-linecap="square" />
  <line x1="40.00" y1="600.00" x2="280.00" y2="600.00" stroke="#111111" stroke-width="8" stroke-linecap="square" />
  <line x1="112.00" y1="40.00" x2="208.00" y2="40.00" stroke="#ffffff" stroke-width="16" stroke-linecap="butt" />
  <line x1="424.00" y1="520.00" x2="616.00" y2="520.00" stroke="#ffffff" stroke-width="16" stroke-linecap="butt" />
  <line x1="424.00" y1="520.00" x2="616.00" y2="520.00" stroke="#111111" stroke-width="4" stroke-linecap="butt" />
  <line x1="88.00" y1="920.00" x2="232.00" y2="920.00" stroke="#ffffff" stroke-width="16" stroke-linecap="butt" />
  <line x1="88.00" y1="920.00" x2="232.00" y2="920.00" stroke="#111111" stroke-width="4" stroke-linecap="butt" />
  <line x1="280.00" y1="120.00" x2="280.00" y2="200.00" stroke="#ffffff" stroke-width="10" stroke-linecap="butt" />
  <line x1="120.00" y1="280.00" x2="200.00" y2="280.00" stroke="#ffffff" stroke-width="10" stroke-linecap="butt" />
  <line x1="280.00" y1="360.00" x2="280.00" y2="440.00" stroke="#ffffff" stroke-width="10" stroke-linecap="butt" />
  <line x1="120.00" y1="600.00" x2="200.00" y2="600.00" stroke="#ffffff" stroke-width="10" stroke-linecap="butt" />
  <text x="160.00" y="160.00" text-anchor="middle" dominant-baseline="middle" font-family="Arial, Helvetica, sans-serif" font-size="18" fill="#222222">ENTRANCE</text>
  <text x="520.00" y="280.00" text-anchor="middle" dominant-baseline="middle" font-family="Arial, Helvetica, sans-serif" font-size="18" fill="#222222">LIVING</text>
  <text x="160.00" y="760.00" text-anchor="middle" dominant-baseline="middle" font-family="Arial, Helvetica, sans-serif" font-size="18" fill="#222222">WORK</text>
  <text x="160.00" y="440.00" text-anchor="middle" dominant-baseline="middle" font-family="Arial, Helvetica, sans-serif" font-size="18" fill="#222222">BEDROOM</text>
</svg>
