<svg xmlns="http://www.w3.org/2000/svg" width="1280" height="1520" viewBox="0 0 1280 1520">
  <rect x="0" y="0" width="1280" height="1520" fill="#ffffff" />
  <polygon points="40.00,40.00 280.00,40.00 280.00,280.00 40.00,280.00" stroke="#d9d9d9" stroke-width="1" fill="#ffffff" />
  <polygon points="280.00,40.00 760.00,40.00 760.00,520.00 280.00,520.00" stroke="#d9d9d9" stroke-width="1" fill="#ffffff" />
  <polygon points="760.00,40.00 1000.00,40.00 1000.00,520.00 760.00,520.00" stroke="#d9d9d9" stroke-width="1" fill="#ffffff" />
  <polygon points="40.00,280.00 280.00,280.00 280.00,600.00 40.00,600.00" stroke="#d9d9d9" stroke-width="1" fill="#ffffff" />
  <polygon points="40.00,600.00 280.00,600.00 280.00,840.00 40.00,840.00" stroke="#d9d9d9" stroke-width="1" fill="#ffffff" />
  <polygon points="40.00,1160.00 280.00,1160.00 280.00,1480.00 40.00,1480.00" stroke="#d9d9d9" stroke-width="1" fill="#ffffff" />
  <polygon points="40.00,840.00 280.00,840.00 280.00,1160.00 40.00,1160.00" stroke="#d9d9d9" stroke-width="1" fill="#ffffff" />
  <polygon points="280.00,520.00 520.00,520.00 520.00,840.00 280.00,840.00" stroke="#d9d9d9" stroke-width="1" fill="#ffffff" />
  <polygon points="520.00,520.00 760.00,520.00 760.00,840.00 520.00,840.00" stroke="#d9d9d9" stroke-width="1" fill="#ffffff" />
  <polygon points="760.00,520.00 1000.00,520.00 1000.00,760.00 760.00,760.00" stroke="#d9d9d9" stroke-width="1" fill="#ffffff" />
  <polygon points="1000.00,40.00 1240.00,40.00 1240.00,280.00 1000.00,280.00" stroke="#d9d9d9" stroke-width="1" fill="#ffffff" />
  <line x1="40.00" y1="40.00" x2="280.00" y2="40.00" stroke="#111111" stroke-width="14" stroke-linecap="square" />
  <line x1="40.00" y1="40.00" x2="40.00" y2="280.00" stroke="#111111" stroke-width="14" stroke-linecap="square" />
  <line x1="280.00" y1="40.00" x2="760.00" y2="40.00" stroke="#111111" stroke-width="14" stroke-linecap="square" />
  <line x1="760.00" y1="40.00" x2="1000.00" y2="40.00" stroke="#111111" stroke-width="14" stroke-linecap="square" />
  <line x1="1000.00" y1="280.00" x2="1000.00" y2="520.00" stroke="#111111" stroke-width="14" stroke-linecap="square" />
  <line x1="40.00" y1="280.00" x2="40.00" y2="600.00" stroke="#111111" stroke-width="14" stroke-linecap="square" />
  <line x1="40.00" y1="600.00" x2="40.00" y2="840.00" stroke="#111111" stroke-width="14" stroke-linecap="square" />
  <line x1="280.00" y1="1160.00" x2="280.00" y2="1480.00" stroke="#111111" stroke-width="14" stroke-linecap="square" />
  <line x1="40.00" y1="1480.00" x2="280.00" y2="1480.00" stroke="#111111" stroke-width="14" stroke-linecap="square" />
  <line x1="40.00" y1="1160.00" x2="40.00" y2="1480.00" stroke="#111111" stroke-width="14" stroke-linecap="square" />
  <line x1="280.00" y1="840.00" x2="280.00" y2="1160.00" stroke="#111111" stroke-width="14" stroke-linecap="square" />
  <line x1="40.00" y1="840.00" x2="40.00" y2="1160.00" stroke="#111111" stroke-width="14" stroke-linecap="square" />
  <line x1="280.00" y1="840.00" x2="520.00" y2="840.00" stroke="#111111" stroke-width="14" stroke-linecap="square" />
  <line x1="760.00" y1="760.00" x2="760.00" y2="840.00" stroke="#111111" stroke-width="14" stroke-linecap="square" />
  <line x1="520.00" y1="840.00" x2="760.00" y2="840.00" stroke="#111111" stroke-width="14" stroke-linecap="square" />
  <line x1="1000.00" y1="520.00" x2="1000.00" y2="760.00" stroke="#111111" stroke-width="14" stroke-linecap="square" />
  <line x1="760.00" y1="760.00" x2="1000.00" y2="760.00" stroke="#111111" stroke-width="14" stroke-linecap="square" />
  <line x1="1000.00" y1="40.00" x2="1240.00" y2="40.00" stroke="#111111" stroke-width="14" stroke-linecap="square" />
  <line x1="1240.00" y1="40.00" x2="1240.00" y2="280.00" stroke="#111111" stroke-width="14" stroke-linecap="square" />
  <line x1="1000.00" y1="280.00" x2="1240.00" y2="280.00" stroke="#111111" stroke-width="14" stroke-linecap="square" />
  <line x1="280.00" y1="40.00" x2="280.00" y2="280.00" stroke="#111111" stroke-width="8" stroke-linecap="square" />
  <line x1="40.00" y1="280.00" x2="280.00" y2="280.00" stroke="#111111" stroke-width="8" stroke-linecap="square" />
  <line x1="760.00" y1="40.00" x2="760.00" y2="520.00" stroke="#111111" stroke-width="8" stroke-linecap="square" />
  <line x1="280.00" y1="520.00" x2="520.00" y2="520.00" stroke="#111111" stroke-width="8" stroke-linecap="square" />
  <line x1="520.00" y1="520.00" x2="760.00" y2="520.00" stroke="#111111" stroke-width="8" stroke-linecap="square" />
  <line x1="280.00" y1="280.00" x2="280.00" y2="520.00" stroke="#111111" stroke-width="8" stroke-linecap="square" />
  <line x1="1000.00" y1="40.00" x2="1000.00" y2="280.00" stroke="#111111" stroke-width="8" stroke-linecap="square" />
  <line x1="760.00" y1="520.00" x2="1000.00" y2="520.00" stroke="#111111" stroke-width="8" stroke-linecap="square" />
  <line x1="280.00" y1="520.00" x2="280.00" y2="600.00" stroke="#111111" stroke-width="8" stroke-linecap="square" />
  <line x1="40.00" y1="600.00" x2="280.00" y2="600.00" stroke="#111111" stroke-width="8" stroke-linecap="square" />
  <line x1="280.00" y1="600.00" x2="280.00" y2="840.00" stroke="#111111" stroke-width="8" stroke-linecap="square" />
  <line x1="40.00" y1="840.00" x2="280.00" y2="840.00" stroke="#111111" stroke-width="8" stroke-linecap="square" />
  <line x1="40.00" y1="1160.00" x2="280.00" y2="1160.00" stroke="#111111" stroke-width="8" stroke-linecap="square" />
  <line x1="520.00" y1="520.00" x2="520.00" y2="840.00" stroke="#111111" stroke-width="8" stroke-linecap="square" />
  <line x1="760.00" y1="520.00" x2="760.00" y2="760.00" stroke="#111111" stroke-width="8" stroke-linecap="square" />
  <line x1="112.00" y1="40.00" x2="208.00" y2="40.00" stroke="#ffffff" stroke-width="16" stroke-linecap="butt" />
  <line x1="88.00" y1="1480.00" x2="232.00" y2="1480.00" stroke="#ffffff" stroke-width="16" stroke-linecap="butt" />
  <line x1="88.00" y1="1480.00" x2="232.00" y2="1480.00" stroke="#111111" stroke-width="4" stroke-linecap="butt" />
  <line x1="328.00" y1="840.00" x2="472.00" y2="840.00" stroke="#ffffff" stroke-width="16" stroke-linecap="butt" />
  <line x1="328.00" y1="840.00" x2="472.00" y2="840.00" stroke="#111111" stroke-width="4" stroke-linecap="butt" />
  <line x1="568.00" y1="840.00" x2="712.00" y2="840.00" stroke="#ffffff" stroke-width="16" stroke-linecap="butt" />
  <line x1="568.00" y1="840.00" x2="712.00" y2="840.00" stroke="#111111" stroke-width="4" stroke-linecap="butt" />
  <line x1="280.00" y1="120.00" x2="280.00" y2="200.00" stroke="#ffffff" stroke-width="10" stroke-linecap="butt" />
  <line x1="760.00" y1="240.00" x2="760.00" y2="320.00" stroke="#ffffff" stroke-width="10" stroke-linecap="butt" />
  <line x1="360.00" y1="520.00" x2="440.00" y2="520.00" stroke="#ffffff" stroke-width="10" stroke-linecap="butt" />
  <line x1="600.00" y1="520.00" x2="680.00" y2="520.00" stroke="#ffffff" stroke-width="10" stroke-linecap="butt" />
  <line x1="120.00" y1="600.00" x2="200.00" y2="600.00" stroke="#ffffff" stroke-width="10" stroke-linecap="butt" />
  <line x1="280.00" y1="680.00" x2="280.00" y2="760.00" stroke="#ffffff" stroke-width="10" stroke-linecap="butt" />
  <line x1="120.00" y1="840.00" x2="200.00" y2="840.00" stroke="#ffffff" stroke-width="10" stroke-linecap="butt" />
  <line x1="120.00" y1="1160.00" x2="200.00" y2="1160.00" stroke="#ffffff" stroke-width="10" stroke-linecap="butt" />
  <text x="160.00" y="160.00" text-anchor="middle" dominant-baseline="middle" font-family="Arial, Helvetica, sans-serif" font-size="18" fill="#222222">ENTRANCE</text>
  <text x="520.00" y="280.00" text-anchor="middle" dominant-baseline="middle" font-family="Arial, Helvetica, sans-serif" font-size="18" fill="#222222">LIVING</text>
  <text x="880.00" y="280.00" text-anchor="middle" dominant-baseline="middle" font-family="Arial, Helvetica, sans-serif" font-size="18" fill="#222222">KITCHEN</text>
  <text x="160.00" y="440.00" text-anchor="middle" dominant-baseline="middle" font-family="Arial, Helvetica, sans-serif" font-size="18" fill="#222222">CORE</text>
  <text x="160.00" y="720.00" text-anchor="middle" dominant-baseline="middle" font-family="Arial, Helvetica, sans-serif" font-size="18" fill="#222222">CONNECTOR</text>
  <text x="160.00" y="1320.00" text-anchor="middle" dominant-baseline="middle" font-family="Arial, Helvetica, sans-serif" font-size="18" fill="#222222">WORK</text>
  <text x="160.00" y="1000.00" text-anchor="middle" dominant-baseline="middle" font-family="Arial, Helvetica, sans-serif" font-size="18" fill="#222222">BEDROOM 1</text>
  <text x="400.00" y="680.00" text-anchor="middle" dominant-baseline="middle" font-family="Arial, Helvetica, sans-serif" font-size="18" fill="#222222">BEDROOM 2</text>
  <text x="640.00" y="680.00" text-anchor="middle" dominant-baseline="middle" font-family="Arial, Helvetica, sans-serif" font-size="18" fill="#222222">BEDROOM 3</text>
  <text x="880.00" y="640.00" text-anchor="middle" dominant-baseline="middle" font-family="Arial, Helvetica, sans-serif" font-size="18" fill="#222222">BATH 1</text>
  <text x="1120.00" y="160.00" text-anchor="middle" dominant-baseline="middle" font-family="Arial, Helvetica, sans-serif" font-size="18" fill="#222222">BATH 2</text>
</svg>
